<svg xmlns="http://www.w3.org/2000/svg" width="36.449" height="36.448" viewBox="0 0 36.449 36.448"><path fill="#c5c5c5" d="M30.224 3.948h-1.098V2.75c0-1.517-1.197-2.75-2.67-2.75-1.474 0-2.67 1.233-2.67 2.75v1.197h-10.82V2.75c0-1.517-1.197-2.75-2.67-2.75-1.473 0-2.67 1.233-2.67 2.75v1.197H6.224a4.255 4.255 0 0 0-4.25 4.25v2h32.5v-2a4.255 4.255 0 0 0-4.25-4.249zM11.466 7.646c0 .689-.525 1.25-1.17 1.25s-1.17-.561-1.17-1.25V2.75c0-.689.525-1.25 1.17-1.25s1.17.561 1.17 1.25v4.896zm16.16 0c0 .689-.525 1.25-1.17 1.25-.646 0-1.17-.561-1.17-1.25V2.75c0-.689.524-1.25 1.17-1.25.645 0 1.17.561 1.17 1.25v4.896zm-1.498 9.668h2.596v2.088h-2.596zm-12.269 0h2.596v2.088h-2.596zm6.137 0h2.595v2.088h-2.595z"/><path fill="#c5c5c5" d="M1.974 32.198a4.255 4.255 0 0 0 4.25 4.25h24a4.255 4.255 0 0 0 4.25-4.25V12.099h-32.5v20.099zm23.154-15.884h4.596v4.088h-4.596v-4.088zm0 5.457h4.596v4.086h-4.596v-4.086zm0 5.458h4.596v4.086h-4.596v-4.086zm-6.132-10.915h4.595v4.088h-4.595v-4.088zm0 5.457h4.595v4.086h-4.595v-4.086zm0 5.458h4.595v4.086h-4.595v-4.086zm-6.137-10.915h4.596v4.088h-4.596v-4.088zm0 5.457h4.596v4.086h-4.596v-4.086zm0 5.458h4.596v4.086h-4.596v-4.086zm-6.135-5.458h4.596v4.086H6.724v-4.086zm0 5.458h4.596v4.086H6.724v-4.086z"/></svg>