<svg height="512" viewBox="0 0 24 24" width="512" xmlns="http://www.w3.org/2000/svg"><path fill="#767676" d="M15.5 12.5H.5a.5.5 0 0 1 0-1h15a.5.5 0 0 1 0 1z"/><path fill="#767676" d="M11.5 16.5a.5.5 0 0 1-.354-.853L14.793 12l-3.646-3.646a.5.5 0 0 1 .707-.707l4 4a.5.5 0 0 1 0 .707l-4 4a.502.502 0 0 1-.354.146z"/><path fill="#767676" d="M12 23a11.015 11.015 0 0 1-10.372-7.333.5.5 0 0 1 .943-.333A10.013 10.013 0 0 0 12 22c5.514 0 10-4.486 10-10S17.514 2 12 2a10.01 10.01 0 0 0-9.428 6.667.5.5 0 0 1-.943-.333A11.012 11.012 0 0 1 12 1c6.065 0 11 4.935 11 11s-4.935 11-11 11z"/></svg>