<svg xmlns="http://www.w3.org/2000/svg" viewBox="0 0 512 512"><path d="M351.117 288.678l-69.513-42.712a7.67 7.67 0 0 0-2.804-1.028l-21.763-3.84c-4.026-.712-7.98 2.058-8.69 6.084s2.057 7.98 6.083 8.69l20.537 3.624 68.297 41.965c3.334 2.049 7.907 1.054 10.12-2.166 2.374-3.456 1.302-8.422-2.267-10.617z"/><path d="M509.513 291.083a7.503 7.503 0 0 0-10.603-.359l-30.409 28.42-139.338-137.482L509.161 12.974a7.502 7.502 0 0 0-10.258-10.946L313.213 176.05c-3.062 2.869-3.126 7.865-.139 10.813l12.325 12.159-3.934 3.474-82.381-7.094a7.517 7.517 0 0 0-3.752.647l-65.273 29.728a7.682 7.682 0 0 0-.577-.132l-37.546-6.626 3.036-7.761a7.5 7.5 0 0 0-4.2-9.697L10.756 153.555a7.497 7.497 0 0 0-9.75 4.179 7.5 7.5 0 0 0 4.179 9.75l113.103 45.242-66.652 170.329-41.162-14.579a7.501 7.501 0 1 0-5.008 14.142l48.006 17.002c3.768 1.335 8.034-.618 9.489-4.338L74.1 366.816l29.187 16.356-3.219 5.218c-9.121 14.783-4.516 34.231 10.268 43.353 7.818 4.824 17.523 5.968 26.259 3.14 1.401 9.104 6.751 17.228 14.596 22.068 7.818 4.824 17.522 5.968 26.259 3.14 1.402 9.104 6.75 17.227 14.595 22.068 7.842 4.839 17.496 5.978 26.261 3.149 1.404 9.1 6.751 17.22 14.594 22.059 11.399 7.033 26.487 5.982 36.762-2.63a31.672 31.672 0 0 0 6.593-7.638l5.117-8.292 4.213 2.588c11.414 7.013 26.498 5.933 36.757-2.698a31.687 31.687 0 0 0 6.579-7.65 31.32 31.32 0 0 0 4.587-18.381c2.382.573 4.82.881 7.28.881 10.894 0 21.199-5.745 26.9-15.023 3.434-5.59 5.003-11.963 4.605-18.378 2.376.57 4.809.876 7.261.876 10.894 0 21.2-5.745 26.9-15.023 3.437-5.594 5.005-11.971 4.604-18.391 2.402.572 4.841.871 7.269.871 10.594 0 20.953-5.334 26.894-15.003 9.094-14.801 4.452-34.24-10.349-43.334l-5.14-3.158 17.239-18.012 16.125 15.91c2.828 2.789 7.489 2.851 10.39.141l35.671-33.337a7.503 7.503 0 0 0 .356-10.603zm-368.59 122.514c-4.779 7.743-14.966 10.155-22.71 5.379-7.744-4.778-10.156-14.965-5.379-22.709l42.014-68.091c4.689-7.6 14.751-10.085 22.434-5.546 7.95 4.7 10.144 15.599 5.371 23.336l-41.73 67.631zm40.853 25.208c-4.777 7.743-14.965 10.156-22.708 5.379-7.65-4.721-10.107-15.047-5.379-22.709l33.61-54.473c4.689-7.599 14.751-10.085 22.434-5.546 7.95 4.7 10.144 15.599 5.37 23.336l-33.327 54.013zm40.858 25.208a16.406 16.406 0 0 1-10.242 7.393 16.391 16.391 0 0 1-12.469-2.014c-7.649-4.721-10.106-15.048-5.378-22.709l25.208-40.855c4.689-7.6 14.752-10.085 22.434-5.546 7.95 4.7 10.144 15.599 5.371 23.336l-24.924 40.395zm57.376-1.567l-16.522 26.776c-4.721 7.65-15.047 10.105-22.71 5.378-7.649-4.72-10.105-15.048-5.378-22.709l16.805-27.236c4.689-7.598 14.752-10.087 22.434-5.545 7.95 4.699 10.144 15.599 5.371 23.336zm136.644-133.498l-37.182-22.847c-3.448-2.119-8.199-.984-10.317 2.464-2.119 3.448-.984 8.199 2.464 10.317l55.397 34.039c7.752 4.764 10.184 14.946 5.421 22.699-4.764 7.752-14.947 10.184-22.7 5.421l-59.413-36.508a7.501 7.501 0 0 0-7.853 12.781l45.78 28.13c7.659 4.706 10.134 15.029 5.421 22.699-4.706 7.659-15.029 10.133-22.699 5.421l-41.488-25.493a7.5 7.5 0 1 0-7.853 12.781l27.854 17.115c7.658 4.707 10.134 15.028 5.421 22.699-4.706 7.658-15.029 10.134-22.699 5.421 0 0-24.496-15.037-24.725-15.147a7.502 7.502 0 0 0-7.181 13.148l10.419 6.402c7.752 4.764 10.183 14.946 5.42 22.699-4.706 7.659-15.029 10.133-22.699 5.421l-4.188-2.574 3.527-5.717c4.509-7.308 5.908-16.308 3.838-24.692-2.042-8.274-7.136-15.176-14.341-19.435-5.622-3.322-11.911-4.668-18.035-4.255 1.15-4.94 1.156-10.146-.076-15.137-2.042-8.274-7.136-15.176-14.341-19.435-5.622-3.323-11.911-4.669-18.035-4.256 3.093-13.288-2.601-27.585-14.417-34.571-5.622-3.322-11.911-4.668-18.035-4.256 3.093-13.288-2.601-27.585-14.417-34.571-14.669-8.671-33.884-3.922-42.834 10.582l-30.91 50.096-31.558-17.678 46.738-119.442 25.448 4.491c-7.238 8.99-9.273 21.647-4.173 32.848 5.278 11.588 16.744 18.445 28.718 18.444 4.361 0 8.79-.91 13.011-2.832l43.928-20.008c3.72-1.694 5.412-6.215 3.717-9.935-1.694-3.719-6.215-5.413-9.935-3.717l-43.929 20.007c-8.279 3.772-18.086.103-21.858-8.178-3.771-8.281-.103-18.086 8.178-21.858l70.294-32.015 83.618 7.201a7.507 7.507 0 0 0 5.608-1.849l7.118-6.285 100.186 98.849-19.633 20.516z"/></svg>