<svg height="470pt" viewBox="0 -19 470.31327 470" width="470pt" xmlns="http://www.w3.org/2000/svg"><path d="M430.156 209.598v-82.793a7.954 7.954 0 0 0-7.8-8.145h-180.2V82.328c20.992-3.601 35.82-22.55 34.274-43.793C274.883 17.293 257.46.691 236.168.168c-21.29-.523-39.504 15.203-42.094 36.344-2.586 21.14 11.293 40.793 32.082 45.425v36.723H47.957a7.954 7.954 0 0 0-5.594 2.45 7.974 7.974 0 0 0-2.207 5.695v82.793C16.886 213.898 0 234.19 0 257.855c0 23.66 16.887 43.957 40.156 48.254V423.16c0 4.418 3.383 8.5 7.801 8.5h374.398c4.418 0 7.801-4.082 7.801-8.5V306.11c23.27-4.298 40.157-24.594 40.157-48.255 0-23.664-16.887-43.957-40.157-48.257zM209.77 41.547c0-14.024 11.367-25.39 25.386-25.39 14.024 0 25.387 11.366 25.387 25.39 0 14.02-11.363 25.387-25.387 25.387-14.015-.016-25.37-11.371-25.386-25.387zM16 257.859c-.012-14.84 9.867-27.867 24.156-31.855v63.7C25.871 285.713 15.992 272.69 16 257.858zM414.156 415.66h-358v-281h358zm16-125.957v-63.7c14.281 4.005 24.153 17.02 24.153 31.852 0 14.829-9.872 27.848-24.153 31.848zm0 0"/><path d="M336.156 293.66a8 8 0 0 0-8-8h-186a8 8 0 0 0-8 8v82a8 8 0 0 0 8 8h186a8 8 0 0 0 8-8zm-16 8v25h-170v-25zm-170 66v-25h170v25zm44-174a8 8 0 0 0-8-8h-53a8 8 0 0 0-8 8v53a8 8 0 0 0 8 8h53a8 8 0 0 0 8-8zm-53 8h37v37h-37zm204-8a8 8 0 0 0-8-8h-53a8 8 0 0 0-8 8v53a8 8 0 0 0 8 8h53a8 8 0 0 0 8-8zm-53 8h37v37h-37zm0 0"/></svg>